<?xml version="1.0" encoding="UTF-8" standalone="no"?>
<svg
   xmlns:dc="http://purl.org/dc/elements/1.1/"
   xmlns:cc="http://creativecommons.org/ns#"
   xmlns:rdf="http://www.w3.org/1999/02/22-rdf-syntax-ns#"
   xmlns:svg="http://www.w3.org/2000/svg"
   xmlns="http://www.w3.org/2000/svg"
   xmlns:sodipodi="http://sodipodi.sourceforge.net/DTD/sodipodi-0.dtd"
   xmlns:inkscape="http://www.inkscape.org/namespaces/inkscape"
   id="contourPlot"
   width="275.28949"
   height="108.32388"
   version="1.1"
   inkscape:version="0.91 r13725"
   sodipodi:docname="bay.svg">
  <metadata
     id="metadata111">
    <rdf:RDF>
      <cc:Work
         rdf:about="">
        <dc:format>image/svg+xml</dc:format>
        <dc:type
           rdf:resource="http://purl.org/dc/dcmitype/StillImage" />
        <dc:title></dc:title>
      </cc:Work>
    </rdf:RDF>
  </metadata>
  <defs
     id="defs109" />
  <sodipodi:namedview
     pagecolor="#ffffff"
     bordercolor="#666666"
     borderopacity="1"
     objecttolerance="10"
     gridtolerance="10"
     guidetolerance="10"
     inkscape:pageopacity="0"
     inkscape:pageshadow="2"
     inkscape:window-width="1230"
     inkscape:window-height="856"
     id="namedview107"
     showgrid="false"
     fit-margin-top="0"
     fit-margin-left="0"
     fit-margin-right="0"
     fit-margin-bottom="0"
     inkscape:zoom="1.24"
     inkscape:cx="102.43549"
     inkscape:cy="-96.194809"
     inkscape:window-x="0"
     inkscape:window-y="0"
     inkscape:window-maximized="0"
     inkscape:current-layer="contourPlot" />
  <polyline
     points="0,195.19177759659468 18.665747923518026,203.55647429870422 53.68615236742494,222.2222222222222 55.06947990425773,222.70829787352002 55.55555555555555,224.5857912001693 65.3158696024919,231.98253626915857 83.86395109680711,249.46938223652617 111.1111111111111,252.23552287184586 125.31247158071534,263.5764173081736 130.15680989490366,277.77777777777777 147.8189328079466,296.6255116364979 148.20935743599205,314.8760241026587 154.40196835125894,333.3333333333333 145.0086153554466,354.99138464455336 143.79064476178831,366.01286698401054 117.28688213726534,382.7131178627347 111.1111111111111,387.64589024754116 109.48796130685429,387.26573908463206 103.75441605919826,388.8888888888889 77.24646009990417,410.57979343323746 55.55555555555555,411.0759660380623 35.76624181047076,424.65513069935963 25.064805256803275,444.4444444444444 15.935687109574134,460.38013155401865 0,471.83560290884066 "
     id="polyline11"
     style="fill:none;stroke:#bc3eaf;stroke-width:1.99967802;stroke-miterlimit:4;stroke-dasharray:none;stroke-opacity:0.17948722"
     transform="matrix(0.01978166,0.64859575,-0.72714161,0.01620415,339.80544,-15.553965)" />
  <polyline
     points="0,229.0272246019256 18.06730004329275,240.28952226551493 32.43848688110651,245.3392908966713 35.69481638308439,257.91703860530663 46.75590909443455,277.7777777777778 49.071830221109714,284.2615031122236 55.55555555555555,286.358095117621 59.35434585137683,281.57656807359905 78.52985701043166,277.77777777777777 99.09006014358377,265.7567268102504 111.1111111111111,266.97710785337824 117.1162272402274,271.7726616486615 119.16467986613549,277.77777777777777 142.14439010519627,302.3000543392482 142.28672175137842,308.95338841804505 150.46643587488185,333.3333333333333 138.56106585954862,360.7832880817708 111.1111111111111,382.7083850735222 103.0403995074012,380.818177285179 74.53176152506796,388.8888888888889 64.09540624906904,397.4287395824024 55.55555555555555,397.6240859753918 27.788548857875,416.6774377467639 12.773027638282784,444.4444444444444 8.120827981712283,452.5652724261567 0,458.4029819445653 "
     id="polyline15"
     style="fill:none;stroke:#c139d1;stroke-width:1.99967802;stroke-miterlimit:4;stroke-dasharray:none;stroke-opacity:0.17948722"
     transform="matrix(0.01978166,0.64859575,-0.72714161,0.01620415,339.80544,-15.553965)" />
  <polyline
     points="38.561493165823514,0 47.22481961016441,8.330735945391144 55.55555555555555,5.306366322973853 82.9117814679566,28.19932964315451 96.27068812170498,55.55555555555555 87.97549580120159,78.69117086546508 89.8161209917391,89.8161209917391 71.78116928397436,94.88549738269231 55.55555555555555,105.93589400152808 45.45036096806175,101.0059165236173 4.055591017097454,107.05552009401366 12.545998469497357,68.1015540250529 7.161003889257421,55.55555555555555 10.4194826864565,45.13607286909905 0,34.34608353324484 "
     id="polyline17"
     style="fill:none;stroke:#c440c4;stroke-width:1.99967802;stroke-miterlimit:4;stroke-dasharray:none;stroke-opacity:0.17948722"
     transform="matrix(0.52625876,0.41602669,-0.49379862,0.50642023,241.62063,-23.224019)" />
  <polyline
     points="0,246.78658148012966 19.090859949940814,258.6869178278369 29.723181839470115,277.7777777777778 36.5218345246178,296.81149880871556 55.55555555555555,302.966285646218 66.70734114424528,288.92956336646745 108.174166430059,280.7147224588299 111.1111111111111,279.38037952065196 137.63265987330155,306.8117845711429 146.5309033985048,333.3333333333333 135.81607038470486,358.03829260692703 111.1111111111111,377.77087989950337 96.59283770794816,374.3706154857259 59.60176502883033,384.8426794156141 55.55555555555555,379.94946244425 46.717006108539046,380.0503394418724 38.5886497438866,388.8888888888889 12.333163028748785,401.2220519176377 1.0479463388763932,443.396498105568 0.48125001976227916,444.4444444444444 0.30596885385041844,444.75041329829486 0,444.97036098029 "
     id="polyline19"
     style="fill:none;stroke:#a250d1;stroke-width:1.99967802;stroke-miterlimit:4;stroke-dasharray:none;stroke-opacity:0.17948722"
     transform="matrix(0.01978166,0.64859575,-0.72714161,0.01620415,339.80544,-15.553965)" />
  <polyline
     points="19.91960949991821,55.55555555555555 30.621714834465827,80.48939627664528 55.55555555555555,92.65376106234832 77.62407455475392,77.62407455475392 85.53666330049708,55.55555555555555 75.69966180995952,35.4114493011516 55.55555555555555,18.55392344664982 28.40910369678229,28.40910369678229 19.91960949991821,55.55555555555555 "
     id="polyline21"
     style="fill:none;stroke:#c460d1;stroke-width:1.99967802;stroke-miterlimit:4;stroke-dasharray:none;stroke-opacity:0.17948722"
     transform="matrix(0.52625876,0.41602669,-0.49379862,0.50642023,241.62063,-23.224019)" />
  <polyline
     points="0,318.5592174994627 19.74215145274441,297.5199292305221 12.690454584505696,277.7777777777778 8.150933923640846,269.6268438541369 0,264.54593835833373 "
     id="polyline23"
     style="fill:none;stroke:#8450d1;stroke-width:1.99967802;stroke-miterlimit:4;stroke-dasharray:none;stroke-opacity:0.17948722"
     transform="matrix(0.01978166,0.64859575,-0.72714161,0.01620415,339.80544,-15.553965)" />
  <polyline
     points="13.652627968601461,333.3333333333333 34.190637368384756,354.6982515205042 55.55555555555555,354.45440734515734 71.14146884567602,373.30297559876846 90.14527590849508,367.92305368627285 111.1111111111111,372.8333747254844 133.07107490986112,355.2932971320833 142.5953709221277,333.3333333333333 134.68582112194707,309.7586233224974 111.1111111111111,285.3751521665055 97.18808350918323,291.7008053797057 74.0603364371137,296.28255865933596 55.55555555555555,319.574476174815 35.221400187850726,312.99917796562846 13.652627968601461,333.3333333333333 "
     id="polyline25"
     style="fill:none;stroke:#8450d1;stroke-width:1.99967802;stroke-miterlimit:4;stroke-dasharray:none;stroke-opacity:0.17948722"
     transform="matrix(0.01978166,0.64859575,-0.72714161,0.01620415,339.80544,-15.553965)" />
  <polyline
     points="32.678215110579,55.55555555555555 39.548685360876014,71.56242575023509 55.55555555555555,79.37162812316858 69.72296453840838,69.72296453840838 74.80263847928919,55.55555555555555 68.48754215196246,42.62356895914868 55.55555555555555,31.8014805703258 38.12824718336548,38.12824718336548 32.678215110579,55.55555555555555 "
     id="polyline27"
     style="fill:none;stroke:#be50d1;stroke-width:1.99967802;stroke-miterlimit:4;stroke-dasharray:none;stroke-opacity:0.17948722"
     transform="matrix(0.52625876,0.41602669,-0.49379862,0.50642023,241.62063,-23.224019)" />
  <polyline
     points="56.884585258354036,333.3333333333333 76.45034544956857,354.2281232273464 82.68117266252169,361.7632717819228 83.69771410904204,361.47549188681984 111.1111111111111,367.8958695514656 130.32607943501736,352.54830165723956 138.65983844575064,333.3333333333333 131.7389823705926,312.70546207385183 111.1111111111111,291.36992481235893 86.20200058830744,302.6868883005814 81.41333172998216,303.63555395220436 66.569715731851,322.3191731570379 56.884585258354036,333.3333333333333 "
     id="polyline29"
     style="fill:none;stroke:#7150d1;stroke-width:1.99967802;stroke-miterlimit:4;stroke-dasharray:none;stroke-opacity:0.17948722"
     transform="matrix(0.01978166,0.64859575,-0.72714161,0.01620415,339.80544,-15.553965)" />
  <polyline
     points="45.43682072123979,55.55555555555555 48.475655887286194,62.63545522382491 55.55555555555555,66.08949518398883 61.82185452206279,61.82185452206279 64.0686136580813,55.55555555555555 61.275422493965365,49.83568861714575 55.55555555555555,45.04903769400177 47.847390669948666,47.847390669948666 45.43682072123979,55.55555555555555 "
     id="polyline31"
     style="fill:none;stroke:#8450d1;stroke-width:1.99967802;stroke-miterlimit:4;stroke-dasharray:none;stroke-opacity:0.17948722"
     transform="matrix(0.52625876,0.41602669,-0.49379862,0.50642023,241.62063,-23.224019)" />
  <polyline
     points="64.63123180874791,333.3333333333333 87.10779651760659,357.3366479268378 111.1111111111111,362.9583643774467 127.58108396017359,349.80330618239583 134.72430596937357,333.3333333333333 128.79214361923806,315.65230082520634 111.1111111111111,297.36469745821245 86.37901549138793,308.6012377136102 64.63123180874791,333.3333333333333 "
     id="polyline33"
     style="fill:none;stroke:#6550d1;stroke-width:1.99967802;stroke-miterlimit:4;stroke-dasharray:none;stroke-opacity:0.17948722"
     transform="matrix(0.01978166,0.64859575,-0.72714161,0.01620415,339.80544,-15.553965)" />
  <polyline
     points="72.37787835914177,333.3333333333333 91.10834894985734,353.3360954945871 111.1111111111111,358.0208592034278 124.83608848532984,347.05831070755204 130.7887734929965,333.3333333333333 125.84530486788358,318.5991395765609 111.1111111111111,303.35947010406596 90.50103142800846,312.7232536502307 72.37787835914177,333.3333333333333 "
     id="polyline35"
     style="fill:none;stroke:#3c50d1;stroke-width:1.99967802;stroke-miterlimit:4;stroke-dasharray:none;stroke-opacity:0.17948722"
     transform="matrix(0.01978166,0.64859575,-0.72714161,0.01620415,339.80544,-15.553965)" />
  <polyline
     points="80.12452490953562,333.3333333333333 95.10890138210809,349.33554306233634 111.1111111111111,353.08335402940895 122.09109301048609,344.3133152327083 126.8532410166194,333.3333333333333 122.89846611652908,321.5459783279153 111.1111111111111,309.3542427499194 94.623047364629,316.8452695868512 80.12452490953562,333.3333333333333 "
     id="polyline37"
     style="fill:none;stroke:#2150d1;stroke-width:1.99967802;stroke-miterlimit:4;stroke-dasharray:none;stroke-opacity:0.17948722"
     transform="matrix(0.01978166,0.64859575,-0.72714161,0.01620415,339.80544,-15.553965)" />
  <polyline
     points="87.8711714599295,333.3333333333333 99.10945381435884,345.3349906300856 111.1111111111111,348.14584885539 119.34609753564234,341.5683197578646 122.91770854024234,333.3333333333333 119.95162736517459,324.49281707926986 111.1111111111111,315.3490153957729 98.74506330124953,320.96728552347173 87.8711714599295,333.3333333333333 "
     id="polyline39"
     style="fill:none;stroke:#1279d1;stroke-width:1.99967802;stroke-miterlimit:4;stroke-dasharray:none;stroke-opacity:0.17948722"
     transform="matrix(0.01978166,0.64859575,-0.72714161,0.01620415,339.80544,-15.553965)" />
  <polyline
     points="95.61781801032338,333.3333333333333 103.11000624660961,341.33443819783486 111.1111111111111,343.2083436813711 116.6011020607986,338.82332428302084 118.98217606386525,333.3333333333333 117.00478861382011,327.43965583062436 111.1111111111111,321.3437880416264 102.86707923787006,325.0893014600923 95.61781801032338,333.3333333333333 "
     id="polyline41"
     style="fill:none;stroke:#1a62d1;stroke-width:1.99967802;stroke-miterlimit:4;stroke-dasharray:none;stroke-opacity:0.17948722"
     transform="matrix(0.01978166,0.64859575,-0.72714161,0.01620415,339.80544,-15.553965)" />
  <polyline
     points="103.36446456071724,333.3333333333333 107.11055867886036,337.3338857655841 111.1111111111111,338.2708385073522 113.85610658595485,336.07832880817705 115.0466435874882,333.3333333333333 114.05794986246559,330.3864945819788 111.1111111111111,327.33856068747986 106.98909517449059,329.2113173967128 103.36446456071724,333.3333333333333 "
     id="polyline43"
     style="fill:none;stroke:#1cc6d1;stroke-width:1.99967802;stroke-miterlimit:4;stroke-dasharray:none;stroke-opacity:0.17948722"
     transform="matrix(0.01978166,0.64859575,-0.72714161,0.01620415,339.80544,-15.553965)" />
</svg>
