<?xml version="1.0" encoding="UTF-8" standalone="no"?>
<svg
   xmlns:dc="http://purl.org/dc/elements/1.1/"
   xmlns:cc="http://creativecommons.org/ns#"
   xmlns:rdf="http://www.w3.org/1999/02/22-rdf-syntax-ns#"
   xmlns:svg="http://www.w3.org/2000/svg"
   xmlns="http://www.w3.org/2000/svg"
   xmlns:sodipodi="http://sodipodi.sourceforge.net/DTD/sodipodi-0.dtd"
   xmlns:inkscape="http://www.inkscape.org/namespaces/inkscape"
   id="contourPlot"
   width="501.86917"
   height="501.82294"
   version="1.1"
   inkscape:version="0.91 r13725"
   sodipodi:docname="peace.svg">
  <metadata
     id="metadata191">
    <rdf:RDF>
      <cc:Work
         rdf:about="">
        <dc:format>image/svg+xml</dc:format>
        <dc:type
           rdf:resource="http://purl.org/dc/dcmitype/StillImage" />
        <dc:title></dc:title>
      </cc:Work>
    </rdf:RDF>
  </metadata>
  <defs
     id="defs189" />
  <sodipodi:namedview
     pagecolor="#ffffff"
     bordercolor="#666666"
     borderopacity="1"
     objecttolerance="10"
     gridtolerance="10"
     guidetolerance="10"
     inkscape:pageopacity="0"
     inkscape:pageshadow="2"
     inkscape:window-width="1440"
     inkscape:window-height="852"
     id="namedview187"
     showgrid="false"
     fit-margin-top="0"
     fit-margin-left="0"
     fit-margin-right="0"
     fit-margin-bottom="0"
     inkscape:zoom="0.87681241"
     inkscape:cx="125.84634"
     inkscape:cy="197.13247"
     inkscape:window-x="0"
     inkscape:window-y="22"
     inkscape:window-maximized="1"
     inkscape:current-layer="contourPlot" />
  <polyline
     points="62.94317711319682,500.0000000000001 63.794052014452085,491.7615035411035 55.55555555555555,475.1090761167278 42.342877669391264,486.78732211383567 14.37798868565031,485.62201131434966 0,489.9569762400684 "
     id="polyline3"
     style="fill:none;stroke:#6541d6;stroke-width:2;stroke-opacity:0.81410259"
     transform="translate(0.99357106,0.99175225)" />
  <polyline
     points="0,479.91395248013697 27.25278947482294,471.6972339192674 45.0256840662141,454.974315933786 55.55555555555555,445.6673131725038 73.53880318950463,482.0167523660509 71.6814868537961,500 "
     id="polyline5"
     style="fill:none;stroke:#6541d6;stroke-width:2;stroke-opacity:0.81410259"
     transform="translate(0.99357106,0.99175225)" />
  <polyline
     points="108.08865115174493,388.8888888888889 106.66565543415058,393.33434456584945 111.1111111111111,399.04187692996237 114.25353146999242,392.03130924777014 114.96548384282188,388.8888888888889 113.72927115451976,386.2707288454802 111.1111111111111,386.1063696176477 109.22399062408064,387.0017684018584 108.08865115174493,388.8888888888889 "
     id="polyline7"
     style="fill:none;stroke:#6541d6;stroke-width:2;stroke-opacity:0.81410259"
     transform="translate(0.99357106,0.99175225)" />
  <polyline
     points="80.41979659439545,500 83.28355436455722,472.2720011909984 83.1860722578767,472.0749611467656 97.46597018190907,444.4444444444444 73.32364662807474,426.67635337192536 55.55555555555555,433.9171401252583 47.55872506186029,436.44761395074914 40.29920053521417,444.4444444444444 19.5362907868615,463.98073523130597 0,469.87092872020537 "
     id="polyline9"
     style="fill:none;stroke:#6541d6;stroke-width:2;stroke-opacity:0.81410259"
     transform="translate(0.99357106,0.99175225)" />
  <polyline
     points="52.95458202851155,222.2222222222222 53.4731744359629,224.3046033418149 55.55555555555555,226.74651541877344 57.747103935867045,224.41377060253373 58.37687686736036,222.2222222222222 57.266341647476324,220.51143613030146 55.55555555555555,219.34703534088143 53.75160767526489,220.41827434193155 52.95458202851155,222.2222222222222 "
     id="polyline11"
     style="fill:none;stroke:#6541d6;stroke-width:2;stroke-opacity:0.81410259"
     transform="translate(0.99357106,0.99175225)" />
  <polyline
     points="97.78728576812321,388.8888888888889 91.51433371584106,408.4856662841589 111.11111111111109,433.6460208897627 124.96375451379276,402.7415322915705 128.102234161376,388.8888888888889 122.65267249069724,377.3473275093028 111.1111111111111,376.6227873418267 102.79217087421843,380.56994865199624 97.78728576812321,388.8888888888889 "
     id="polyline13"
     style="fill:none;stroke:#6541d6;stroke-width:2;stroke-opacity:0.81410259"
     transform="translate(0.99357106,0.99175225)" />
  <polyline
     points="336.9691561338886,500 337.5911522241907,495.7421811091427 337.5911522241907,448.7022633353017 338.4698844665979,444.44444444444434 342.54692967772763,435.2308481000502 342.54692967772763,398.10248523328323 378.0014260315695,388.8888888888889 341.6594909484996,380.56273127372265 333.3333333333333,384.2979315671807 330.07202614582883,385.6275817013844 327.13755988584415,388.8888888888889 320.941786438355,401.28043578386723 320.941786438355,432.05289754946614 290.16932467275615,432.05289754946614 277.7777777777777,438.24867099695524 274.46231065452196,441.12897732118864 273.63511563051014,444.4444444444444 270.4329867553327,451.7892354668894 263.0701255105093,485.29234773273157 248.68639353054667,500 "
     id="polyline15"
     style="fill:none;stroke:#6541d6;stroke-width:2;stroke-opacity:0.81410259"
     transform="translate(0.99357106,0.99175225)" />
  <polyline
     points="384.2979315671807,333.3333333333333 380.56273127372265,341.6594909484996 388.8888888888889,378.0014260315695 394.5500592465962,338.9945036910407 391.91098194977957,333.3333333333333 391.67773527306315,330.544486949159 388.8888888888889,329.87686894557044 385.95264375544133,330.3970881998858 384.2979315671807,333.3333333333333 "
     id="polyline17"
     style="fill:none;stroke:#6541d6;stroke-width:2;stroke-opacity:0.81410259"
     transform="translate(0.99357106,0.99175225)" />
  <polyline
     points="447.30886328498235,500 446.5672045132454,497.87723993119903 444.4444444444444,495.8557745813584 441.6315986093376,497.1871541648932 440.8086216438892,500 "
     id="polyline19"
     style="fill:none;stroke:#6541d6;stroke-width:2;stroke-opacity:0.81410259"
     transform="translate(0.99357106,0.99175225)" />
  <polyline
     points="399.7763517462083,388.8888888888889 440.0811582789821,393.2521750543513 444.4444444444444,393.0331143075305 446.8116191635309,391.25606360797536 448.4153707743099,388.8888888888889 446.9063249596737,386.42700837365965 444.4444444444444,385.86679582799815 438.7832740867371,383.22771853118155 399.7763517462083,388.8888888888889 "
     id="polyline21"
     style="fill:none;stroke:#6541d6;stroke-width:2;stroke-opacity:0.81410259"
     transform="translate(0.99357106,0.99175225)" />
  <polyline
     points="43.14544808686191,222.2222222222222 45.61982448554601,232.15795329223175 55.55555555555555,243.80912582015728 66.01215983842069,232.67882650508736 69.01701539709634,222.2222222222222 63.71828348643617,214.0594942913416 55.55555555555555,208.50375188063097 46.94832182958517,213.6149884962518 43.14544808686191,222.2222222222222 "
     id="polyline23"
     style="fill:none;stroke:#6541d6;stroke-width:2;stroke-opacity:0.81410259"
     transform="translate(0.99357106,0.99175225)" />
  <polyline
     points="89.15810633499476,500 91.21317263507186,480.10206152396074 111.1111111111111,456.38711597989914 120.13988423268368,453.47321756601696 124.13576887667307,444.4444444444444 130.45049356122112,425.1050619943345 135.67397755759313,413.4517553353709 141.2389844799301,388.8888888888889 131.57607382687473,368.42392617312527 111.1111111111111,367.13920506600573 96.3603511243562,374.13812890213393 87.48592038450151,388.8888888888889 79.74337139534667,413.07670472867994 55.55555555555555,422.9336339739209 39.21535108352595,428.10423997241486 24.3817097766815,444.4444444444444 11.819792098900063,456.2642365433445 0,459.8279049602739 "
     id="polyline25"
     style="fill:none;stroke:#6541d6;stroke-width:2;stroke-opacity:0.81410259"
     transform="translate(0.99357106,0.99175225)" />
  <polyline
     points="350.68104995669233,500 353.6487996263817,479.6845337069517 353.6487996263817,464.7599107374928 357.8415226399344,444.44444444444434 367.3656314163751,422.9211869719305 388.8888888888889,409.36292273436703 408.01791254293175,408.01791254293175 423.62575879961463,409.7075745337187 444.4444444444444,408.66236304580764 455.7390202467688,400.1834646912133 463.39105116362236,388.8888888888889 456.1908930151074,377.14244031822585 444.4444444444444,374.4694804342896 417.433122796132,361.8775672405765 415.6399651708441,362.13781260693366 415.9002105372013,360.3446549816457 403.3082973434882,333.3333333333333 402.19540007841846,320.0268221438038 388.8888888888889,316.84139519254035 374.8790893728109,319.32353381725534 366.9839086366155,333.3333333333333 356.5628897347572,356.5628897347572 333.3333333333333,366.9839086366155 317.77255493073596,373.3281104862915 303.77124301002067,388.8888888888889 295.1067545992731,406.2178657103842 277.7777777777777,414.8823541211318 261.958584356272,428.6252510229387 258.0117625071381,444.4444444444444 247.14577305352637,469.3679952757486 222.22222222222217,494.63470811743485 218.2876555432698,496.0654333210475 215.0180678288023,499.9999999999999 "
     id="polyline27"
     style="fill:none;stroke:#6541d6;stroke-width:2;stroke-opacity:0.81410259"
     transform="translate(0.99357106,0.99175225)" />
  <polyline
     points="458.111536891489,500 454.57283687526296,489.8716075691815 444.4444444444444,480.2265258430812 431.02342391363754,486.5789794691931 427.0967278210855,500 "
     id="polyline29"
     style="fill:none;stroke:#6541d6;stroke-width:2;stroke-opacity:0.81410259"
     transform="translate(0.99357106,0.99175225)" />
  <polyline
     points="430.3013576248245,0 438.3692827637787,6.075161680665736 444.4444444444444,8.354911997867939 454.7622075051996,10.317763060755171 489.2788848921775,0 "
     id="polyline31"
     style="fill:none;stroke:#6541d6;stroke-width:2;stroke-opacity:0.81410259"
     transform="translate(0.99357106,0.99175225)" />
  <polyline
     points="33.33631414521227,222.2222222222222 37.766474535129106,240.01130324264864 55.55555555555555,260.8717362215411 74.27721574097434,240.943882407641 79.65715392683232,222.2222222222222 70.17022532539599,207.6075524523818 55.55555555555555,197.6604684203805 40.14503598390543,206.81170265057213 33.33631414521227,222.2222222222222 "
     id="polyline33"
     style="fill:none;stroke:#6541d6;stroke-width:2;stroke-opacity:0.81410259"
     transform="translate(0.99357106,0.99175225)" />
  <polyline
     points="97.89641607559406,500 99.13347108060333,488.0223599694923 111.1111111111111,473.7470579621053 133.26416526944223,466.5974986027756 143.0684928050667,444.4444444444444 148.87715222213075,426.6549299999085 150.77537546108218,404.78018009447334 154.37573479848425,388.8888888888889 143.38095567729735,365.60317789951955 166.66666666666666,361.01024922501006 186.25159596952537,352.9182626361921 195.5150559876363,333.3333333333333 182.1914352806863,317.8085647193136 166.66666666666666,318.4724327041988 156.9264440668449,323.5931107335116 151.89574705219778,333.3333333333333 137.0625436870255,359.28476590924777 111.1111111111111,357.6556227901848 89.92853137449403,367.7063091522718 77.18455500087978,388.8888888888889 71.93990500427172,405.2732383376051 55.55555555555555,411.95012782258357 30.871977105191615,419.7608659940805 8.464219018148817,444.4444444444444 4.103293410938624,448.5477378553831 0,449.78488120034234 "
     id="polyline35"
     style="fill:none;stroke:#6541d6;stroke-width:2;stroke-opacity:0.81410259"
     transform="translate(0.99357106,0.99175225)" />
  <polyline
     points="165.81607754448223,111.1111111111111 166.20635264830756,111.57142512947023 166.66666666666666,111.8926888338957 167.37117579256338,111.8156202370078 167.40783996005015,111.1111111111111 167.21669399866133,110.56108377911652 166.66666666666666,109.41812948107629 165.90279704465684,110.34724148910128 165.81607754448223,111.1111111111111 "
     id="polyline37"
     style="fill:none;stroke:#6541d6;stroke-width:2;stroke-opacity:0.81410259"
     transform="translate(0.99357106,0.99175225)" />
  <polyline
     points="289.4318030205396,222.2222222222222 304.89817977328465,249.34262421772914 303.00422670339,252.55132885216557 305.8298513185039,250.2742957629484 333.33333333333337,255.99085385197355 346.04269288694354,234.93158177583246 364.598519973658,222.2222222222222 350.78798386150237,204.76757169405315 333.33333333333337,204.01631960061724 314.62775414306464,203.5166430319535 289.4318030205396,222.2222222222222 "
     id="polyline39"
     style="fill:none;stroke:#6541d6;stroke-width:2;stroke-opacity:0.81410259"
     transform="translate(0.99357106,0.99175225)" />
  <polyline
     points="267.41547372169947,111.1111111111111 264.5089373823145,124.37995150657437 277.77777777777777,151.2842592605164 295.5771447672242,128.91047810055753 299.1560886456189,111.1111111111111 297.1985228514049,91.69036603748395 277.7777777777777,91.9278721860603 270.24777738080564,103.58111071413896 267.41547372169947,111.1111111111111 "
     id="polyline41"
     style="fill:none;stroke:#6541d6;stroke-width:2;stroke-opacity:0.81410259"
     transform="translate(0.99357106,0.99175225)" />
  <polyline
     points="317.23649638470897,55.55555555555555 315.4851812506002,73.40370763828874 333.3333333333333,73.67018676349862 341.244998158999,63.46722038122118 339.06699301738155,55.55555555555555 337.4440246564585,51.444864232430334 333.3333333333333,51.4460555839717 328.2775009659049,50.499723188127085 317.23649638470897,55.55555555555555 "
     id="polyline43"
     style="fill:none;stroke:#6541d6;stroke-width:2;stroke-opacity:0.81410259"
     transform="translate(0.99357106,0.99175225)" />
  <polyline
     points="468.91421049799555,500 462.57846923728044,481.865975207164 444.4444444444444,464.59727710480416 420.4152492179374,475.9708047734929 413.38483399828175,500 "
     id="polyline45"
     style="fill:none;stroke:#6541d6;stroke-width:2;stroke-opacity:0.81410259"
     transform="translate(0.99357106,0.99175225)" />
  <polyline
     points="364.3929437794961,500 367.51527160239965,478.6263827135107 374.1768851029902,459.156448230343 377.2131608132711,444.4444444444444 380.7948141923261,436.3503697478817 388.8888888888889,431.2516246515726 403.0794855397511,430.2538477935822 425.2550252177774,425.2550252177774 444.4444444444444,424.2916117840847 464.6664213300068,409.1108657744512 478.36673155293477,388.8888888888889 465.47546107054114,367.85787226279217 444.4444444444444,363.072165040581 424.1611228447381,353.61665493303974 414.70561273719676,333.3333333333333 412.71306488377365,309.5091573384486 388.8888888888889,303.80592143951026 363.80553499018043,308.24997943462483 349.66988570605037,333.3333333333333 344.61072937564796,344.61072937564796 333.3333333333333,349.66988570605037 305.7515658652707,360.9151008013958 305.39891245576337,360.95446801131885 303.9921747397771,362.6744919268895 280.40492613419724,388.8888888888889 279.5292100153908,390.64032112650193 277.7777777777777,391.5160372453084 257.7616733327255,408.90499333394115 248.34363383250317,415.0103004991699 249.0924067795455,417.57425988712123 242.388409383766,444.4444444444444 236.26579436070438,458.48801658292666 222.2222222222222,472.72494882810497 202.22041992393747,479.9981977017153 185.59911130270615,500 "
     id="polyline47"
     style="fill:none;stroke:#6541d6;stroke-width:2;stroke-opacity:0.81410259"
     transform="translate(0.99357106,0.99175225)" />
  <polyline
     points="428.03161687387734,277.7777777777778 425.27384222366277,296.9483799985595 444.4444444444444,291.2734711271271 456.5655863469209,289.89891968025427 464.907862304946,277.77777777777777 470.06743653142064,252.15478569080153 468.8143471957469,246.59212497352476 484.977409277994,222.2222222222222 462.90382743246676,203.7628392342 452.4531683441023,174.6753905663245 448.16020610934817,166.66666666666666 446.8659351399881,164.24517597112305 444.4444444444444,148.2137878228603 432.1634920610864,154.38571428330857 428.1599346946419,166.66666666666666 416.72801529534365,194.3830958157674 416.67923477460687,194.45701255238458 412.0153936854813,222.2222222222222 425.9752182121109,240.69144845455585 423.1276621029843,256.4609954363177 428.03161687387734,277.7777777777778 "
     id="polyline49"
     style="fill:none;stroke:#6541d6;stroke-width:2;stroke-opacity:0.81410259"
     transform="translate(0.99357106,0.99175225)" />
  <polyline
     points="414.6218367270635,0 431.6341459620211,12.810298482423358 444.4444444444444,17.617459766986737 466.2008406404238,21.75639619597934 483.3783125452362,16.621687454763755 500.0000000000001,29.433117200120268 "
     id="polyline51"
     style="fill:none;stroke:#6541d6;stroke-width:2;stroke-opacity:0.81410259"
     transform="translate(0.99357106,0.99175225)" />
  <polyline
     points="0,424.1015917885585 15.638630622738576,404.5275195116275 37.88682523460051,406.5576192098439 55.55555555555555,400.9666216712462 64.13643861319679,397.4697719465301 66.88318961725808,388.8888888888889 83.4967116246318,361.2744894024096 111.1111111111111,348.1720405143638 126.94373696672406,349.16595918894626 135.99327819856168,333.3333333333333 146.44005658631048,313.1067232529772 166.66666666666666,302.47308970051074 190.3492665637702,301.46037767488133 207.78017937694656,277.77777777777777 198.2180619431193,253.7736174986749 199.0132501639237,245.43119428052077 186.87074606698638,242.42630162254196 166.66666666666666,229.35553641686124 162.37201015938334,226.51687872950552 160.88138654389672,222.2222222222222 163.6436607943771,219.19921634993264 166.66666666666666,216.81271202379207 180.4690518156263,208.41983707326258 204.08726750457282,204.08726750457282 202.895417179498,185.99347170939106 211.1183857553996,166.66666666666666 210.33799162207077,154.7824360665152 222.2222222222222,156.24277611509845 247.99103911738868,136.87992800627757 253.63569234227535,111.11111111111109 260.234390522466,93.56772385579936 277.7777777777777,66.41802060228999 288.5090051977196,66.28678297549733 289.5619859713589,55.55555555555555 319.58525379044283,41.80747601266504 333.3333333333333,44.38079176100809 344.51133671229815,44.37755217659075 348.9245957960664,55.55555555555555 354.8471394556797,77.069361677902 333.3333333333333,104.81379290166365 326.9405689253542,104.71834670313204 327.5849446631586,111.1111111111111 326.13821130782213,118.30623313662231 333.3333333333333,155.32560589472658 343.3505995648317,121.12837734260948 344.18838713273004,111.1111111111111 371.0030974162119,93.22531963843413 388.8888888888889,101.64506848728963 399.33692723952043,100.66307276047957 434.3127799994034,100.97944666607009 444.4444444444444,99.78280799094225 457.1344903528344,98.42106520272112 461.61828980974803,111.1111111111111 469.72891226486246,136.39557893152917 470.3832846166194,140.72782649449175 484.2474253607899,166.66666666666666 489.7446561702401,176.92201049642665 500,186.0687416561951 "
     id="polyline53"
     style="fill:none;stroke:#6541d6;stroke-width:2;stroke-opacity:0.81410259"
     transform="translate(0.99357106,0.99175225)" />
  <polyline
     points="55.297125489751444,277.77777777777777 55.365830565010434,277.9675027683229 55.55555555555555,278.07077665598655 55.75849824519458,277.98072046741686 55.85364140421113,277.77777777777777 57.985703290757016,275.3476300425763 82.54227164352798,249.2089383101946 90.29729245656831,222.2222222222222 76.62216716435583,201.1556106134219 55.55555555555555,186.81718496013002 33.34175013822571,200.0084168048924 23.52718020356263,222.2222222222222 29.913124584712218,247.86465319306558 54.648718465810795,276.87094068803304 55.297125489751444,277.77777777777777 "
     id="polyline55"
     style="fill:none;stroke:#6541d6;stroke-width:2;stroke-opacity:0.81410259"
     transform="translate(0.99357106,0.99175225)" />
  <polyline
     points="143.87118924415842,500 124.24185928031909,486.869251830792 111.1111111111111,491.1069999443115 107.05376952613483,495.9426584150238 106.6347258161934,500.0000000000001 "
     id="polyline57"
     style="fill:none;stroke:#6541d6;stroke-width:2;stroke-opacity:0.81410259"
     transform="translate(0.99357106,0.99175225)" />
  <polyline
     points="162.0012167334603,444.4444444444444 158.29706158906643,452.8140495220447 166.66666666666666,467.15246955306674 175.64430523579068,453.42208301356845 212.21115657963705,454.45551008702967 222.2222222222222,450.8151895387751 225.38581566788244,447.6080378901047 226.76505626039395,444.4444444444444 228.27526477514175,438.39140189152494 222.22222222222226,417.6644841515988 197.60350416993037,413.5076069411807 183.7850436876193,406.00726590984146 166.66666666666666,400.39753465340885 163.1496110900871,440.9273888678648 162.0012167334603,444.4444444444444 "
     id="polyline59"
     style="fill:none;stroke:#6541d6;stroke-width:2;stroke-opacity:0.81410259"
     transform="translate(0.99357106,0.99175225)" />
  <polyline
     points="146.63542732986053,111.1111111111111 155.8263443167191,121.95143346105867 166.66666666666666,129.5171429037665 183.25774518829056,127.70218963273503 184.12118053545993,111.1111111111111 179.61972336773746,98.15805441004036 166.66666666666666,71.24166140906102 148.67765784734587,93.12210229179036 146.63542732986053,111.1111111111111 "
     id="polyline61"
     style="fill:none;stroke:#6541d6;stroke-width:2;stroke-opacity:0.81410259"
     transform="translate(0.99357106,0.99175225)" />
  <polyline
     points="246.35938637445858,333.3333333333333 267.04105880463044,344.07005230648065 277.7777777777777,342.8022806962654 282.0378803873561,337.5934359429117 320.20008982652075,333.3333333333333 286.6804990331074,324.43061207800366 277.77777777777777,324.54628816180383 268.56757624761786,324.12313180317335 246.35938637445858,333.3333333333333 "
     id="polyline63"
     style="fill:none;stroke:#6541d6;stroke-width:2;stroke-opacity:0.81410259"
     transform="translate(0.99357106,0.99175225)" />
  <polyline
     points="399.672940175478,500 404.13304603391174,484.7558428549771 388.8888888888889,463.0893682420763 379.4794056471484,490.59051675825947 378.10483760229977,500 "
     id="polyline65"
     style="fill:none;stroke:#6541d6;stroke-width:2;stroke-opacity:0.81410259"
     transform="translate(0.99357106,0.99175225)" />
  <polyline
     points="356.2883950376367,277.77777777777777 373.0986342730648,293.56803239360187 388.8888888888889,290.7704476864801 405.97076504484016,294.85965393372896 408.4280673506551,277.77777777777777 404.7737365427021,261.8929301239645 388.8888888888889,243.96532302878975 369.77846655894206,258.6673554478309 356.2883950376367,277.77777777777777 "
     id="polyline67"
     style="fill:none;stroke:#6541d6;stroke-width:2;stroke-opacity:0.81410259"
     transform="translate(0.99357106,0.99175225)" />
  <polyline
     points="479.7168841045022,500 470.5841015992979,473.8603428451465 444.4444444444444,448.968028366527 435.8555588174621,453.03333007142663 421.0291285063498,444.4444444444444 440.13711208324264,440.13711208324264 444.4444444444444,439.9208605223619 462.5899751220892,426.29891376679967 474.2836934576284,418.7281379020728 479.35656653707406,409.5323223518148 493.3424119422472,388.8888888888889 482.7984997737775,371.6873886626664 491.62560492423927,341.70772840909416 468.18918977047707,357.078078659366 444.4444444444444,351.6748496468725 431.9346431961624,345.8431345816153 426.1029281309053,333.3333333333333 424.428918811845,313.3178077007338 444.4444444444444,307.3927834020348 471.04312865592055,304.37646198925387 489.349453719829,277.77777777777777 491.13462924825905,268.9124070260369 500,258.3976680084835 "
     id="polyline69"
     style="fill:none;stroke:#6541d6;stroke-width:2;stroke-opacity:0.81410259"
     transform="translate(0.99357106,0.99175225)" />
  <polyline
     points="398.94231582930246,0 424.89900916026346,19.545435284180957 444.4444444444444,26.88000753610552 468.5366850378846,31.463314962115373 495.0337463199074,55.55555555555555 493.2285145068172,62.32704104873826 500,63.688119491554644 "
     id="polyline71"
     style="fill:none;stroke:#6541d6;stroke-width:2;stroke-opacity:0.81410259"
     transform="translate(0.99357106,0.99175225)" />
  <polyline
     points="27.1338499372276,277.77777777777777 34.68991899374352,298.64341433958987 55.55555555555555,310.00130346175496 77.87485251647506,300.0970747386973 88.3385377256717,277.77777777777777 98.98086672831602,265.6475333949827 96.83497927909929,236.49835405423408 100.93743098630428,222.2222222222222 83.07410900331567,194.7036687744621 55.55555555555555,175.97390149987956 32.64090688070383,189.58131534151838 24.31628360068762,190.98295026735425 24.576516091984463,197.64570613023776 13.718046261912987,222.2222222222222 18.267301913434547,240.48952413565678 15.821298594944373,261.95647918283345 27.1338499372276,277.77777777777777 "
     id="polyline73"
     style="fill:none;stroke:#6541d6;stroke-width:2;stroke-opacity:0.81410259"
     transform="translate(0.99357106,0.99175225)" />
  <polyline
     points="385.35466200770725,0 383.05204082801566,5.836848060873219 388.8888888888889,5.840745408578374 406.0406638671683,17.15177497827945 418.1638723585059,26.280572085938566 444.4444444444444,36.14255530522432 460.75460083114234,39.24539916885769 478.6927918275986,55.55555555555555 471.4841822822413,82.59529339335232 444.4444444444444,85.4968721789472 421.5359054405974,88.20257210726406 411.8847275750577,88.11527242494233 388.8888888888889,90.27661741300567 365.2811749053849,79.16326953905958 358.7821985747513,55.55555555555555 351.5786487681378,37.310240120751125 333.3333333333333,37.31552793804446 310.8930066149808,33.115228837203 291.20073394704735,42.132599386285946 277.77777777777777,20.294620141033363 271.21687016046764,48.99464793824547 266.002378604485,55.55555555555555 251.02821276808268,82.30512056525062 250.2210036641264,83.55433699745979 239.85591096285125,111.1111111111111 236.68733208137013,125.576220970259 222.2222222222222,136.44539382439277 199.66035299620725,133.6729803371261 200.8345211108698,111.1111111111111 192.0227527368136,85.75502504096418 187.52979928676157,76.41868817565046 178.6820355567898,55.55555555555555 170.8538821142897,51.368340107932504 166.66666666666666,50.7307691813454 160.5026800801892,49.3915689690781 115.81592822318187,55.55555555555555 114.22504051885927,58.669484963303724 129.5478352144648,92.67438700775742 127.45477711523881,111.1111111111111 145.44633598513067,132.33144179264704 166.66666666666666,147.14159697363735 188.59000305718897,144.74333027614438 190.02962869874614,166.66666666666666 183.0563262938259,183.0563262938259 166.66666666666666,193.0224562233952 150.34891129769593,205.90446685325148 135.438548107694,222.2222222222222 143.48472219147072,245.40416669741813 166.66666666666666,260.72683680637016 177.01978985373515,267.4246545907093 181.14398243412768,277.77777777777777 175.006028942055,286.1171400531661 166.66666666666666,286.4737466968226 148.33138021151373,296.11306423293064 130.96250494924135,297.6291716159081 129.68288826673677,314.76155617770775 120.09080934492565,333.3333333333333 116.82493024642262,339.04715246864487 111.1111111111111,338.68845823854275 100.92098832717524,343.5234561172692 67.45811622713282,345.23589400491056 58.13169489633199,386.31274954811244 56.5818242336364,388.8888888888889 56.332972222121846,389.66630555545515 55.55555555555555,389.9831155199088 53.95479193527243,390.48965250917195 36.41176161861558,388.8888888888889 10.265053102269155,378.62383578661974 0,376.3825506358983 "
     id="polyline75"
     style="fill:none;stroke:#6541d6;stroke-width:2;stroke-opacity:0.81410259"
     transform="translate(0.99357106,0.99175225)" />
  <polyline
     points="499.9999999999999,409.8513382967194 487.70129186603117,432.1457363104756 468.7048730868548,444.4444444444444 485.12759588373507,459.3168485607094 485.42850957534904,485.42850957534904 490.5195577110089,500 "
     id="polyline77"
     style="fill:none;stroke:#6541d6;stroke-width:2;stroke-opacity:0.81410259"
     transform="translate(0.99357106,0.99175225)" />
  <polyline
     points="437.5002435246139,333.3333333333333 439.7081635475869,338.0696142301909 444.4444444444444,340.2775342531639 453.4343381650887,342.3232270539776 467.14195562302456,333.3333333333333 455.5218755406469,322.25590223713095 444.4444444444444,323.5120956769427 436.86645421000617,325.7553430988951 437.5002435246139,333.3333333333333 "
     id="polyline79"
     style="fill:none;stroke:#6541d6;stroke-width:2;stroke-opacity:0.81410259"
     transform="translate(0.99357106,0.99175225)" />
  <polyline
     points="500,90.44749703134097 474.1381079694522,85.24921908056321 483.2759423223337,111.1111111111111 487.3376926162232,123.77341849488793 500,143.22945204690052 "
     id="polyline81"
     style="fill:none;stroke:#6541d6;stroke-width:2;stroke-opacity:0.81410259"
     transform="translate(0.99357106,0.99175225)" />
  <polyline
     points="0,135.91418518024253 26.38026629484998,137.49137740596106 34.72072798411284,111.1111111111111 10.169031733746122,100.94207937736499 0,98.81540322454028 "
     id="polyline83"
     style="fill:none;stroke:#6541d6;stroke-width:2;stroke-opacity:0.81410259"
     transform="translate(0.99357106,0.99175225)" />
  <polyline
     points="270.63260831042567,0 265.5931676523467,12.184610125431114 259.7904099418328,37.56818771961062 245.49437299605654,55.55555555555555 237.14226646122717,70.47559979456047 228.39970143790896,104.93363189542437 226.07612958342716,111.1111111111111 225.3836250453515,114.27251393424037 222.2222222222222,116.64801153368713 217.29124293753392,116.04209039579933 217.54786168627962,111.1111111111111 215.05822245810594,103.9471113469948 205.96998082008383,71.80779695769392 199.0776317837707,55.55555555555555 177.9615087186878,44.2607135035344 166.66666666666666,42.54089206065878 150.03956548787212,38.92845437676102 124.16979654905222,42.49687011761446 111.1111111111111,34.94548255826286 100.31947899851448,44.76392344295894 82.00102434269664,55.55555555555555 82.55456008964713,82.55456008964713 79.03538494557704,87.63128172108964 82.1019335332459,111.1111111111111 103.08963267153283,119.13258955068939 111.1111111111111,115.78186536806176 133.72150991420045,144.05626786357735 160.3748432963888,160.3748432963888 166.66666666666666,164.7660510435082 168.80073513918336,164.53259819414998 168.94087164209276,166.66666666666666 168.26207419326562,168.26207419326562 166.66666666666666,169.23220042299835 154.48189876174757,178.8514345715858 136.69756415014845,192.25311970570402 111.1111111111111,220.75078830170514 93.70274594266263,184.07503183511517 60.04490193770032,166.66666666666666 63.33299612177631,158.8892261004459 55.55555555555555,138.25640445136546 29.938613287649723,141.04972439876084 36.87644527927506,166.66666666666666 5.314203319526206,171.98086998619283 7.002997708779533,215.21922451344273 3.9089123202633336,222.2222222222222 5.205207807590299,227.4274300298125 0,273.11009986597884 "
     id="polyline85"
     style="fill:none;stroke:#6541d6;stroke-width:2;stroke-opacity:0.81410259"
     transform="translate(0.99357106,0.99175225)" />
  <polyline
     points="285.29045433425455,0 307.85248259559313,25.480850737740187 333.3333333333333,30.250264115080842 358.64596082397736,30.242928064911517 368.6398013534362,55.55555555555555 373.01086769240334,71.43357675204115 388.8888888888889,78.90816633872173 410.23519209295637,76.90185875962302 426.6923898645341,73.30761013546594 444.4444444444444,71.21093636695217 458.5826801879028,69.69379129901387 462.3518373352898,55.55555555555555 452.9725166244,47.0274833756 444.4444444444444,45.40510307434312 428.19702511359054,39.308136224701656 409.0381723950585,35.40627204938592 388.8888888888889,22.11848452680047 366.7851633387056,22.103725550183313 375.5050248240717,0 "
     id="polyline87"
     style="fill:none;stroke:#6541d6;stroke-width:2;stroke-opacity:0.81410259"
     transform="translate(0.99357106,0.99175225)" />
  <polyline
     points="91.73612219986681,166.66666666666666 104.50621743364582,173.27156034413196 111.1111111111111,187.18667929174455 120.81884645966608,176.37440201522165 133.70122744622023,166.66666666666666 119.68970414121142,158.08807363656635 111.1111111111111,147.3605055697377 97.49334856020073,153.04890411575627 91.73612219986681,166.66666666666666 "
     id="polyline89"
     style="fill:none;stroke:#6541d6;stroke-width:2;stroke-opacity:0.81410259"
     transform="translate(0.99357106,0.99175225)" />
  <polyline
     points="259.9606018458245,0 248.91904565003836,26.696823427816184 235.69153649435265,42.08624128342511 224.98636738762812,55.55555555555555 223.99434756429656,57.32768089762993 222.2222222222222,64.31235321760504 220.29186542214342,57.485912355634355 219.47322801075148,55.55555555555555 185.06913532308593,37.15308689913629 166.66666666666666,34.35101493997218 139.57645089555504,28.465339784443927 137.9812947554167,28.68537191124994 111.1111111111111,13.147271123587958 88.90572619198589,33.35017063643034 61.782029487441456,49.329081623669666 55.55555555555555,53.365021971277606 54.084373478617756,54.084373478617756 2.1013319382215094,53.454223617334044 0,53.964269954246156 "
     id="polyline91"
     style="fill:none;stroke:#6541d6;stroke-width:2;stroke-opacity:0.81410259"
     transform="translate(0.99357106,0.99175225)" />
  <polyline
     points="296.51136842782734,0 313.8038003166817,19.529533016651563 333.3333333333333,23.18500029211723 356.51161614637346,23.178282813040106 365.6553876404362,0 "
     id="polyline93"
     style="fill:none;stroke:#6541d6;stroke-width:2;stroke-opacity:0.81410259"
     transform="translate(0.99357106,0.99175225)" />
  <polyline
     points="378.4974041321212,55.55555555555555 380.7405604794218,63.703883965022634 388.8888888888889,67.53971526443779 399.84344592609074,66.51011259275744 442.89159417101877,57.10840582898132 444.4444444444444,56.92500055495711 445.6811780935643,56.7922892046754 446.0108828429812,55.55555555555555 445.1904324176577,54.8095675823423 444.4444444444444,54.667650843461935 443.0232112324347,54.13432234354575 399.22915592796227,45.21528851648214 388.8888888888889,38.396223645022566 371.718091789272,38.384758455938666 378.4974041321212,55.55555555555555 "
     id="polyline95"
     style="fill:none;stroke:#6541d6;stroke-width:2;stroke-opacity:0.81410259"
     transform="translate(0.99357106,0.99175225)" />
  <polyline
     points="103.32893509843194,0 78.51112282692098,22.955567271365446 55.55555555555555,37.83514456763962 43.65436799627557,43.65436799627557 12.281496407966374,43.27405914758918 0,46.25508853221099 "
     id="polyline97"
     style="fill:none;stroke:#6541d6;stroke-width:2;stroke-opacity:0.81410259"
     transform="translate(0.99357106,0.99175225)" />
  <polyline
     points="249.2885953812234,0 241.36947211117393,19.14724988895174 222.2222222222222,41.4239329634957 201.92796709857922,35.261300431912545 192.176761927484,30.045460294738188 166.66666666666666,26.161137819285578 145.17487831987492,21.49178834679175 117.25058954174818,0 "
     id="polyline99"
     style="fill:none;stroke:#6541d6;stroke-width:2;stroke-opacity:0.81410259"
     transform="translate(0.99357106,0.99175225)" />
  <polyline
     points="307.7322825214001,0 319.7551180377704,13.578215295562961 333.3333333333333,16.11973646915362 349.4483993694011,16.11506603606773 355.80575045680064,0 "
     id="polyline101"
     style="fill:none;stroke:#6541d6;stroke-width:2;stroke-opacity:0.81410259"
     transform="translate(0.99357106,0.99175225)" />
  <polyline
     points="388.3550069108061,55.55555555555555 388.4702532664403,55.97419117800416 388.8888888888889,56.17126419015385 389.4516997592251,56.118366425891814 392.0286750243377,55.55555555555555 389.42013946086604,55.02430498357837 388.8888888888889,54.67396276324464 388.00670705103056,54.67337371769722 388.3550069108061,55.55555555555555 "
     id="polyline103"
     style="fill:none;stroke:#6541d6;stroke-width:2;stroke-opacity:0.81410259"
     transform="translate(0.99357106,0.99175225)" />
  <polyline
     points="83.71979296519699,0 69.08874187584667,13.533186320291126 55.55555555555555,22.305267164001606 33.22436251393339,33.22436251393339 22.461660877711225,33.093894677844325 0,38.54590711017582 "
     id="polyline105"
     style="fill:none;stroke:#6541d6;stroke-width:2;stroke-opacity:0.81410259"
     transform="translate(0.99357106,0.99175225)" />
  <polyline
     points="132.72054357184805,0 151.90299186294388,14.763674803722797 166.66666666666666,17.971260698598964 187.8658430812315,21.19917641456486 202.9757883220169,19.246433900205332 222.2222222222222,25.09088095912646 233.8198985723095,11.597676350087287 238.61658891662228,0 "
     id="polyline107"
     style="fill:none;stroke:#6541d6;stroke-width:2;stroke-opacity:0.81410259"
     transform="translate(0.99357106,0.99175225)" />
  <polyline
     points="318.9531966149729,0 325.70643575885896,7.626897574474347 333.3333333333333,9.054472646189994 342.3851825924287,9.051849259095365 345.956113273165,0 "
     id="polyline109"
     style="fill:none;stroke:#6541d6;stroke-width:2;stroke-opacity:0.81410259"
     transform="translate(0.99357106,0.99175225)" />
  <polyline
     points="0,30.836725688140678 24.81379169601529,24.81379169601529 42.297472707116576,13.258082848438978 55.55555555555555,6.775389760363626 59.666360924772384,4.110805369216831 64.11065083196205,0 "
     id="polyline111"
     style="fill:none;stroke:#6541d6;stroke-width:2;stroke-opacity:0.81410259"
     transform="translate(0.99357106,0.99175225)" />
  <polyline
     points="148.1904976019479,0 158.63110540601286,8.035561260653845 166.66666666666666,9.781383577912361 178.20493766080216,11.538270994135502 215.50436419397596,6.717858028246291 222.2222222222222,8.757828954757233 226.27032503344506,4.048102811222846 227.94458245202114,0 "
     id="polyline113"
     style="fill:none;stroke:#6541d6;stroke-width:2;stroke-opacity:0.81410259"
     transform="translate(0.99357106,0.99175225)" />
  <polyline
     points="330.17411070854564,0 331.6577534799476,1.675579853385746 333.3333333333333,1.9892088232263838 335.32196581545634,1.9886324821230106 336.1064760895295,0 "
     id="polyline115"
     style="fill:none;stroke:#6541d6;stroke-width:2;stroke-opacity:0.81410259"
     transform="translate(0.99357106,0.99175225)" />
  <polyline
     points="0,23.127544266105502 18.610343772011465,18.610343772011465 46.76762242177844,0 "
     id="polyline117"
     style="fill:none;stroke:#6541d6;stroke-width:2;stroke-opacity:0.81410259"
     transform="translate(0.99357106,0.99175225)" />
  <polyline
     points="163.66045163204777,0 165.35921894908182,1.307447717584879 166.66666666666666,1.5915064572257591 168.5440322403728,1.8773655737061394 183.0707252411341,0 "
     id="polyline119"
     style="fill:none;stroke:#6541d6;stroke-width:2;stroke-opacity:0.81410259"
     transform="translate(0.99357106,0.99175225)" />
  <polyline
     points="0,15.418362844070339 12.406895848007645,12.406895848007645 31.178414947852293,0 "
     id="polyline121"
     style="fill:none;stroke:#6541d6;stroke-width:2;stroke-opacity:0.81410259"
     transform="translate(0.99357106,0.99175225)" />
  <polyline
     points="0,7.709181422035162 6.2034479240038225,6.2034479240038225 15.589207473926152,0 "
     id="polyline123"
     style="fill:none;stroke:#6541d6;stroke-width:2;stroke-opacity:0.81410259"
     transform="translate(0.99357106,0.99175225)" />
</svg>
